<?xml version="1.0" encoding="UTF-8"?>
<svg width="76px" height="86px" viewBox="0 0 76 86" version="1.1" xmlns="http://www.w3.org/2000/svg" xmlns:xlink="http://www.w3.org/1999/xlink">
    <title>Group 23</title>
    <g id="Page-1" stroke="none" stroke-width="1" fill="none" fill-rule="evenodd">
        <g id="Desktop" transform="translate(-392.000000, -220.000000)">
            <g id="Group-2" transform="translate(392.000000, 220.000000)">
                <g id="Group-14-Copy" transform="translate(0.000000, 9.999900)">
                    <polygon id="Clip-6" points="0 76 76 76 76 0 0 0"></polygon>
                    <path d="M54.5255253,76.0001 L21.4745728,76.0001 C17.898144,76.0001 15,73.0135027 15,69.327908 L15,63.481684 L15,51.7894387 L15,6.67234267 C15,2.9867176 17.898144,0.0001 21.4745728,0.0001 L54.5255253,0.0001 C58.101856,0.0001 61,2.9867176 61,6.67234267 L61,69.327908 C61,73.0135027 58.101856,76.0001 54.5255253,76.0001 Z M17.8365085,66.4047453 L17.8365085,69.327908 C17.8365085,71.4249 19.5013538,73.0770387 21.4745728,73.0770387 L54.5255253,73.0770387 C56.5603799,73.0770387 58.1635897,71.4249 58.1635897,69.327908 L58.1635897,6.67234267 C58.1635897,4.57535067 56.5603799,2.9231816 54.5255253,2.9231816 L21.4745728,2.9231816 C19.4397183,2.9231816 17.8365085,4.6388968 17.8365085,6.67234267 L17.8365085,48.866276 L17.8365085,66.4047453 Z" id="Shape" fill="#424242" fill-rule="nonzero"></path>
                    <line x1="35" y1="70.0001" x2="41" y2="70.0001" id="Stroke-7" stroke="#424242" stroke-width="1.66"></line>
                    <path d="M39,7.00052863 C39,7.5526075 38.5525075,8.0001 37.9995714,8.0001 C37.4474925,8.0001 37,7.5526075 37,7.00052863 C37,6.4475925 37.4474925,6.0001 37.9995714,6.0001 C38.5525075,6.0001 39,6.4475925 39,7.00052863" id="Fill-8" fill="#424242"></path>
                    <polygon id="Fill-4" fill="#FF8300" points="21 66.0001 55 65.9606804 55 10.0001 21 10.0001"></polygon>
                    <path d="M45,41.4173425 C45.0093271,38.6537353 43.8075627,36.7364705 39.2641239,35.4566595 C36.7930486,34.7387885 36.2057695,34.3504321 36.2057695,33.3873866 C36.2057695,32.6842261 36.6185535,31.9369341 37.8812974,31.9369341 C39.5474438,31.9369341 39.8307638,32.9892232 39.9789908,33.6884609 L44.5777801,33.6884609 C44.3920273,31.1543371 42.8975615,29.1949023 39.6600213,28.6751323 L39.6600213,27.0001 L36.1860684,27.0001 L36.1860684,28.6888621 C33.2721885,29.2311881 31.3593097,31.2121982 31.3593097,34.0307245 C31.3593097,36.6531112 32.5488783,38.5429164 37.3399874,39.8962797 C39.4949077,40.5052932 40.0681146,41.0054493 40.0681146,42.0655839 C40.0681146,42.8736791 39.6140522,43.6150868 38.1374111,43.6150868 C36.7949249,43.6150868 35.9430888,42.8776019 35.6813462,41.6742854 L31,41.6742854 C31.1810621,44.3309964 32.9119406,46.4032115 36.3230377,46.9190587 L36.3230377,49.0001 L39.812939,49.0001 L39.812939,46.9151359 C42.9425925,46.4444008 44.983059,44.6458005 45,41.4173425" id="Fill-13" fill="#FFFFFF"></path>
                </g>
                <g id="Group-Copy-5" transform="translate(60.000000, 0.000000)" fill="#FF7900" fill-rule="nonzero">
                    <polygon id="Path" points="10.6948182 9.72042857 9.44027273 7.42328571 5.10240909 10.0231429 6.35695455 12.3202857"></polygon>
                    <polygon id="Path" points="5.19268182 2.2571 3.19481818 0.637557143 0.136454545 4.77827143 2.13445455 6.39785714"></polygon>
                    <polygon id="Path" points="12.7888182 16.1868571 7.83172727 16.8512857 8.15231818 19.4764286 13.1095455 18.812"></polygon>
                </g>
            </g>
        </g>
    </g>
</svg>