<?xml version="1.0" encoding="UTF-8"?>
<svg width="76px" height="76px" viewBox="0 0 76 76" version="1.1" xmlns="http://www.w3.org/2000/svg" xmlns:xlink="http://www.w3.org/1999/xlink">
    <title>ico-reverse</title>
    <g id="Page-1" stroke="none" stroke-width="1" fill="none" fill-rule="evenodd">
        <g id="Desktop" transform="translate(-152.000000, -520.000000)">
            <g id="ico-reverse" transform="translate(152.000000, 520.000000)">
                <polygon id="Clip-5" points="0 76.0001 76 76.0001 76 0.0001 0 0.0001"></polygon>
                <path d="M48.5255253,76 L15.4745728,76 C11.898144,76 9,73.0134027 9,69.327808 L9,63.481584 L9,51.7893387 L9,6.67224267 C9,2.9866176 11.898144,0 15.4745728,0 L48.5255253,0 C52.101856,0 55,2.9866176 55,6.67224267 L55,69.327808 C55,73.0134027 52.101856,76 48.5255253,76 Z M11.8365085,66.4046453 L11.8365085,69.327808 C11.8365085,71.4248 13.5013538,73.0769387 15.4745728,73.0769387 L48.5255253,73.0769387 C50.5603799,73.0769387 52.1635897,71.4248 52.1635897,69.327808 L52.1635897,6.67224267 C52.1635897,4.57525067 50.5603799,2.9230816 48.5255253,2.9230816 L15.4745728,2.9230816 C13.4397183,2.9230816 11.8365085,4.6387968 11.8365085,6.67224267 L11.8365085,48.866176 L11.8365085,66.4046453 Z" id="Shape" fill="#424242" fill-rule="nonzero"></path>
                <line x1="29" y1="70" x2="35" y2="70" id="Stroke-7" stroke="#424242" stroke-width="1.66"></line>
                <path d="M33,7.00042863 C33,7.5525075 32.5525075,8 31.9995714,8 C31.4474925,8 31,7.5525075 31,7.00042863 C31,6.4474925 31.4474925,6 31.9995714,6 C32.5525075,6 33,6.4474925 33,7.00042863" id="Fill-8" fill="#424242"></path>
                <polygon id="Fill-4" fill="#FF8300" points="15 66 49 65.9605804 49 10 15 10"></polygon>
                <path d="M36,53 L36,36.7568242 C36,28.0516447 43.160535,21 52,21 C60.8395676,21 68,28.1002899 68,36.7568242 C68,45.4620038 60.7901209,52.5136485 52,52.5136485 C47.8519164,52.5136485 43.9013118,50.9088593 40.888963,48.1367864 L36,53 Z" id="Path" fill="#FFFFFF"></path>
                <path d="M36,53 L36,36.7568242 C36,28.0516447 43.160535,21 52,21 C60.8395676,21 68,28.1002899 68,36.7568242 C68,45.4620038 60.7901209,52.5136485 52,52.5136485 C47.8519164,52.5136485 43.9013118,50.9088593 40.888963,48.1367864 L36,53 Z M41.5718769,44.8560915 L42.320077,45.6978501 C44.7985017,48.4568081 48.3057744,50 51.9999514,50 C59.154675,50 65,44.1546582 65,37 C65,29.7985667 59.154675,24 51.9999514,24 C44.7985017,24 39,29.8453418 39,37 L39,47.4280457 L41.5718769,44.8560915 Z" id="Shape" fill="#424242" fill-rule="nonzero"></path>
                <path d="M52.1268102,25.0487936 C52.0796477,25 51.9855186,25 51.9383562,25 C51.8912916,25.0487936 51.844227,25.0975872 51.844227,25.1463808 L51.844227,26.8048592 C46.3804305,26.8048592 42,31.390248 42,37 L44.3550881,37 C44.3550881,32.7073728 47.6992172,29.2439344 51.844227,29.2439344 L51.844227,30.85372 C51.844227,30.9024128 51.8912916,31 51.9383562,31 C51.9855186,31.0487936 52.0796477,31 52.1268102,30.9512064 L55,27.9756032 L52.1268102,25.0487936 Z" id="Path" fill="#424242" fill-rule="nonzero"></path>
                <path d="M59.6449119,37 C59.6449119,41.2753081 56.3007828,44.7246919 52.1558708,44.7246919 L52.1558708,43.1214388 C52.1558708,43.0728432 52.1087084,42.9757524 52.0616438,42.9757524 C52.0144814,42.9271568 51.9203523,42.9757524 51.8731898,43.024348 L49,45.9878762 L51.8731898,48.9514044 C51.9203523,49 52.0144814,49 52.0616438,49 C52.1087084,48.9514044 52.1558708,48.9028088 52.1558708,48.8542132 L52.1558708,47.2509601 C57.6195695,47.2509601 62,42.6841788 62,37.0971912 L59.6449119,37.0971912 L59.6449119,37 Z" id="Path" fill="#424242" fill-rule="nonzero"></path>
                <path d="M56,37 C56,39.2381105 54.1905009,41 51.9999505,41 C49.7619171,41 48,39.1904785 48,37 C48,34.7618895 49.8094991,33 51.9999505,33 C54.2380829,33 56,34.7618895 56,37 Z" id="Path" fill="#FF8300" fill-rule="nonzero"></path>
                <polygon id="Path" fill="#FFFFFF" fill-rule="nonzero" points="51.5908973 39 50 37.3636022 50.5909209 36.8181989 51.5908973 37.8636335 53.4545927 36 54 36.5909632"></polygon>
            </g>
        </g>
    </g>
</svg>