<?xml version="1.0" encoding="UTF-8"?>
<svg width="76px" height="76px" viewBox="0 0 76 76" version="1.1" xmlns="http://www.w3.org/2000/svg" xmlns:xlink="http://www.w3.org/1999/xlink">
    <title>Group 9</title>
    <g id="Page-1" stroke="none" stroke-width="1" fill="none" fill-rule="evenodd">
        <g id="Desktop" transform="translate(-152.000000, -810.000000)">
            <g id="Group-9" transform="translate(152.000000, 810.000000)">
                <g id="Group-16">
                    <polygon id="Clip-5" points="0 76.0001 76 76.0001 76 0.0001 0 0.0001"></polygon>
                    <path d="M15.7578219,3.25623504 C13.1441264,3.25623504 11.0178333,5.55050025 11.0178333,8.37176715 L11.0178333,67.6293285 C11.0178333,70.4505954 13.1441264,72.743765 15.7578219,72.743765 L48.2421781,72.743765 C50.8558736,72.743765 52.9831821,70.4505954 52.9831821,67.6293285 L52.9831821,23.9730079 C52.9831821,22.5736526 52.9831821,22.2279937 52.4744558,21.5807744 L36.1505363,3.73502869 C35.8723107,3.43044143 35.4844196,3.25623504 35.0873897,3.25623504 L15.7578219,3.25623504 Z M15.7578219,76 C11.4798502,76 8,72.2452498 8,67.6293285 L8,8.37176715 C8,3.7558458 11.4798502,0 15.7578219,0 L35.0873897,0 C36.2855874,0 37.4563686,0.528097339 38.2981532,1.44952859 L54.6210573,19.2941787 C55.5105667,20.2649136 56,21.5522879 56,22.9174524 L56,67.6293285 C56,72.2452498 52.5201498,76 48.2421781,76 L15.7578219,76 Z" id="Fill-1" fill="#424242"></path>
                    <path d="M18.1997027,71 C15.3276437,71 13,68.2496865 13,64.856666 L13,11.143334 C13,7.75031347 15.3276437,5 18.1997027,5 L32.7839971,5.10962562 C33.5952637,5.11607419 34.3695218,5.48041818 34.9353632,6.12097575 L49.7021464,22.5181573 C50.751996,23.8241154 51,24.1633265 51,26.258363 L51,64.856666 C51,68.2496865 48.6723563,71 45.8002973,71 L18.1997027,71 Z" id="Fill-4" fill="#FF8300"></path>
                    <path d="M39.4228306,60.0474495 L37.3188342,60.0474495 L37.3188342,55.1483955 L42.0712446,55.1483955 L42.0712446,57.3775181 C42.0712446,58.8494528 40.8829028,60.0474495 39.4228306,60.0474495 L39.4228306,60.0474495 Z M21.9277986,57.3775181 L21.9277986,55.1483955 L26.6964746,55.1483955 L26.6964746,60.0474495 L24.5762126,60.0474495 C23.1161404,60.0474495 21.9277986,58.8494528 21.9277986,57.3775181 L21.9277986,57.3775181 Z M24.5762126,39.9525505 L26.6964746,39.9525505 L26.6964746,44.3124096 L21.9277986,44.3124096 L21.9277986,42.6215173 C21.9277986,41.1495826 23.1161404,39.9525505 24.5762126,39.9525505 L24.5762126,39.9525505 Z M42.0712446,42.6215173 L42.0712446,44.3124096 L37.3188342,44.3124096 L37.3188342,39.9525505 L39.4228306,39.9525505 C40.8829028,39.9525505 42.0712446,41.1495826 42.0712446,42.6215173 L42.0712446,42.6215173 Z M37.3188342,52.1968095 L42.0712446,52.1968095 L42.0712446,47.2649601 L37.3188342,47.2649601 L37.3188342,52.1968095 Z M29.62523,60.0474495 L34.3900788,60.0474495 L34.3900788,39.9525505 L29.62523,39.9525505 L29.62523,60.0474495 Z M21.9277986,52.1958449 L26.6964746,52.1958449 L26.6964746,47.2639955 L21.9277986,47.2639955 L21.9277986,52.1958449 Z M39.4228306,37 L24.5762126,37 C21.502024,37 19,39.5213875 19,42.6215173 L19,57.3775181 C19,60.4776479 21.502024,63 24.5762126,63 L39.4228306,63 C42.497976,63 45,60.4776479 45,57.3775181 L45,42.6215173 C45,39.5213875 42.497976,37 39.4228306,37 L39.4228306,37 Z" id="Fill-6" fill="#FFFFFF"></path>
                </g>
                <g id="Group" transform="translate(54.000000, 8.000000)" fill="#FF7900" fill-rule="nonzero">
                    <polygon id="Path" points="10.6948182 9.72042857 9.44027273 7.42328571 5.10240909 10.0231429 6.35695455 12.3202857"></polygon>
                    <polygon id="Path" points="5.19268182 2.2571 3.19481818 0.637557143 0.136454545 4.77827143 2.13445455 6.39785714"></polygon>
                    <polygon id="Path" points="12.7888182 16.1868571 7.83172727 16.8512857 8.15231818 19.4764286 13.1095455 18.812"></polygon>
                </g>
            </g>
        </g>
    </g>
</svg>